<?xml version="1.0" encoding="UTF-8"?>
<svg width="414px" height="414px" viewBox="0 0 414 414" version="1.1" xmlns="http://www.w3.org/2000/svg" xmlns:xlink="http://www.w3.org/1999/xlink">
    <!-- Generator: Sketch 62 (91390) - https://sketch.com -->
    <title>bin</title>
    <desc>Created with Sketch.</desc>
    <g id="Welcome" stroke="none" stroke-width="1" fill="none" fill-rule="evenodd">
        <g id="Desktop-HD" transform="translate(-1209.000000, -174.000000)" stroke="#000000" stroke-width="13">
            <g id="Group-2" transform="translate(1252.000000, 181.000000)">
                <path d="M29.0214434,353.657449 L29.0214434,106.815142 C9.67381446,104.00214 0,94.1330509 0,77.2078753 C0,60.2826996 9.67381446,50.8810127 29.0214434,49.0028147 L90.9797312,49.0028147 C89.5161765,27.6904963 90.7452322,14.1775807 94.6668983,8.46406807 C98.5885644,2.7505554 107.829028,0.0414640783 122.388289,0.336794099 L208.308404,0.336794099 C220.492252,-1.01332614 228.64308,1.69576518 232.760889,8.46406807 C236.878699,15.232371 238.495036,28.7452865 237.6099,49.0028147 L298.487986,49.0028147 C317.495995,50.6290483 327,60.0307352 327,77.2078753 C327,94.3850153 317.495995,104.254104 298.487986,106.815142 L298.487986,353.657449 C298.487986,370.425678 295.448768,382.041973 289.370332,388.506333 C283.291897,394.970694 273.822991,398.462363 260.963614,398.981342 L69.2023132,398.981342 C55.7973267,399.288772 45.7492685,395.797103 39.0581384,388.506333 C32.3670084,381.215564 29.0214434,369.599269 29.0214434,353.657449 Z" id="Path-6"></path>
                <line x1="29" y1="107.5" x2="298" y2="107.5" id="Path-7"></line>
                <line x1="91" y1="49.5" x2="238" y2="49.5" id="Path-8"></line>
                <line x1="104.5" y1="150" x2="104.5" y2="339" id="Path-9" stroke-linecap="round"></line>
                <line x1="163.5" y1="150" x2="163.5" y2="339" id="Path-9-Copy" stroke-linecap="round"></line>
                <line x1="222.5" y1="150" x2="222.5" y2="339" id="Path-9-Copy-2" stroke-linecap="round"></line>
            </g>
        </g>
    </g>
</svg>