<?xml version="1.0" encoding="UTF-8"?>
<svg width="414px" height="414px" viewBox="0 0 414 414" version="1.1" xmlns="http://www.w3.org/2000/svg" xmlns:xlink="http://www.w3.org/1999/xlink">
    <!-- Generator: Sketch 62 (91390) - https://sketch.com -->
    <title>cart</title>
    <desc>Created with Sketch.</desc>
    <g id="Welcome" stroke="none" stroke-width="1" fill="none" fill-rule="evenodd">
        <g id="Desktop-HD" transform="translate(-792.000000, -174.000000)">
            <g id="cart" transform="translate(799.000000, 181.000000)">
                <path d="M195.941407,367.472656 C195.941407,345.671875 178.269532,328 156.472657,328 C134.671876,328 117,345.671875 117,367.46875 C117,389.269532 134.671876,406.941406 156.472657,406.941406 C178.257813,406.917969 195.917969,389.261719 195.941407,367.472656 L195.941407,367.472656 Z M131,367.472656 C131,353.402344 142.402344,342 156.472657,342 C170.539063,342 181.941407,353.402344 181.941407,367.46875 C181.941407,381.539063 170.539063,392.941406 156.472657,392.941406 C142.410157,392.925782 131.015626,381.53125 131,367.472656 L131,367.472656 Z" id="Shape" fill="#000000" fill-rule="nonzero"></path>
                <path d="M314.46875,406.941407 C336.269531,406.945313 353.941407,389.273438 353.941407,367.472656 C353.945312,345.671875 336.273437,328 314.472656,328 C292.671875,328 275,345.671875 275,367.472656 C275.027343,389.257813 292.679687,406.914063 314.46875,406.941407 L314.46875,406.941407 Z M314.46875,342 C328.535156,342 339.941407,353.402344 339.941407,367.46875 C339.945312,381.535156 328.539062,392.941406 314.472656,392.941406 C300.40625,392.941406 289,381.539063 289,367.472656 C289.015625,353.414063 300.410156,342.019532 314.46875,342 L314.46875,342 Z" id="Shape" fill="#000000" fill-rule="nonzero"></path>
                <path d="M0.876704544,0.661422045 L45.7061834,0.661422045 C54.2611513,0.484014347 61.2932264,3.20275496 66.8024087,8.81764387 C72.311591,14.4325328 75.9047981,21.2018667 77.58203,29.1256456 L109.349357,252.87107 C109.349357,265.776509 113.153575,275.829827 120.76201,283.031026 C128.370445,290.232225 137.857476,293.771961 149.223104,293.650236 L354.265609,293.650236" id="Path-3" stroke="#000000" stroke-width="13" stroke-linecap="round"></path>
                <path d="M105.950882,228.529738 L326.647351,228.529738 C335.85826,227.459682 343.722319,223.927839 350.239529,217.934207 C356.756738,211.940575 360.794876,204.328689 362.353942,195.098547 L399.201799,74.5297377" id="Path-4" stroke="#000000" stroke-width="13" stroke-linecap="round"></path>
                <path d="M88.5,75.5 L109.5,75.5 M396.260391,75.5 L361.5,75.5" id="cv-2" stroke="#000000" stroke-width="13" stroke-linecap="round"></path>
            </g>
        </g>
    </g>
</svg>