<?xml version="1.0" encoding="UTF-8"?>
<svg width="483px" height="287px" viewBox="0 0 483 287" version="1.1" xmlns="http://www.w3.org/2000/svg" xmlns:xlink="http://www.w3.org/1999/xlink">
    <!-- Generator: Sketch 62 (91390) - https://sketch.com -->
    <title>Desktop</title>
    <desc>Created with Sketch.</desc>
    <g id="Welcome" stroke="none" stroke-width="1" fill="none" fill-rule="evenodd">
        <g id="Desktop" transform="translate(-50.000000, -498.000000)">
            <g id="Group" transform="translate(55.000000, 503.000000)">
                <path d="M8,55.1424667 L8,221.696386 C9.15985812,224.115599 10.2043084,225.756867 11.1333509,226.620193 C12.0623934,227.483519 13.7669753,228.396116 16.2470966,229.357986 L223.87955,265.839428 C229.170439,267.153829 233.281862,267.811029 236.21382,267.811029 C239.145777,267.811029 243.586597,267.153829 249.536279,265.839428 L456.642229,229.357986 C459.243125,228.403232 461.01834,227.490634 461.967874,226.620193 C462.917407,225.749752 463.928116,224.108483 465,221.696386 L465,55.1424667 C464.001729,52.4561237 462.99102,50.6970459 461.967874,49.8652334 C460.944727,49.0334208 459.015616,48.4024422 456.180543,47.9722976 L249.536279,10.8594929 C244.841334,9.61983096 240.55441,9 236.675506,9 C232.796603,9 228.531284,9.61983096 223.87955,10.8594929 L16.7087833,47.9722976 C14.0405374,48.3705979 12.1820599,49.0015765 11.1333509,49.8652334 C10.0846419,50.7288903 9.04019163,52.4879681 8,55.1424667 Z" id="Path-2" fill="#EE605F"></path>
                <path d="M0,49.2724809 L0,227.124369 C1.20046584,229.707685 2.28148334,231.460287 3.24305249,232.382176 C4.20462165,233.304064 5.96888255,234.278566 8.53583519,235.305683 L223.437697,274.261797 C228.913824,275.665358 233.169192,276.367138 236.2038,276.367138 C239.238408,276.367138 243.834705,275.665358 249.992692,274.261797 L464.349616,235.305683 C467.041572,234.286164 468.878938,233.311662 469.861716,232.382176 C470.844494,231.452689 471.890588,229.700087 473,227.124369 L473,49.2724809 C471.966779,46.4039133 470.920684,44.5255108 469.861716,43.6372733 C468.802748,42.7490358 466.806098,42.0752556 463.871765,41.6159326 L249.992692,1.98562917 C245.133372,0.66187639 240.696359,-2.84217094e-14 236.681651,-2.84217094e-14 C232.666943,-2.84217094e-14 228.252292,0.66187639 223.437697,1.98562917 L9.01368596,41.6159326 C6.25202226,42.0412511 4.32847777,42.7150313 3.24305249,43.6372733 C2.15762721,44.5595152 1.07660972,46.4379178 0,49.2724809 Z" id="Path-2-Copy" stroke="#EE605F" stroke-width="3"></path>
                <line x1="32" y1="138" x2="441" y2="138" id="Line" stroke="#FFFFFF" stroke-width="3" stroke-linecap="square"></line>
                <rect id="Rectangle" fill="#EE605F" x="62" y="90" width="351" height="96"></rect>
                <path d="M132.609538,183 L132.609538,179.704102 L83.6593424,179.704102 L83.6593424,138.322266 L126.383952,138.322266 L126.383952,135.026367 L83.6593424,135.026367 L83.6593424,97.4287109 L132.609538,97.4287109 L132.609538,94.1328125 L80.363444,94.1328125 L80.363444,183 L132.609538,183 Z M142.151367,183 L142.151367,100.480469 L142.517578,100.419434 L179.321777,183 L181.946289,183 L217.957031,102.189453 L218.323242,102.250488 L218.323242,183 L221.619141,183 L221.619141,94.1328125 L217.895996,94.1328125 L180.786621,177.750977 L180.42041,177.750977 L143.433105,94.1328125 L138.855469,94.1328125 L138.855469,183 L142.151367,183 Z M230.184408,183 L240.133138,156.449707 L283.529134,156.449707 L293.477865,183 L297.078939,183 L263.814779,94.1328125 L259.786458,94.1328125 L226.583333,183 L230.184408,183 Z M282.308431,153.153809 L241.353841,153.153809 L259.969564,103.410156 L261.617513,98.222168 L261.983724,98.222168 L263.692708,103.410156 L282.308431,153.153809 Z M352.3361,183 L352.3361,179.704102 L304.301432,179.704102 L304.301432,94.1328125 L300.944499,94.1328125 L300.944499,183 L352.3361,183 Z M410.88916,183 L410.88916,179.704102 L362.854492,179.704102 L362.854492,94.1328125 L359.497559,94.1328125 L359.497559,183 L410.88916,183 Z" id="EMALL" fill="#FFFFFF" fill-rule="nonzero"></path>
            </g>
        </g>
    </g>
</svg>